<svg width="8" height="10" viewBox="0 0 8 10" fill="none" xmlns="http://www.w3.org/2000/svg">
<g clip-path="url(#clip0_3_55)">
<path d="M2.28571 0C2.60179 0 2.85714 0.279297 2.85714 0.625V1.25H5.14286V0.625C5.14286 0.279297 5.39821 0 5.71429 0C6.03036 0 6.28571 0.279297 6.28571 0.625V1.25H7.14286C7.61607 1.25 8 1.66992 8 2.1875V3.125H0V2.1875C0 1.66992 0.383929 1.25 0.857143 1.25H1.71429V0.625C1.71429 0.279297 1.96964 0 2.28571 0ZM0 3.75H8V9.0625C8 9.58008 7.61607 10 7.14286 10H0.857143C0.383929 10 0 9.58008 0 9.0625V3.75ZM1.14286 5.3125V5.9375C1.14286 6.10938 1.27143 6.25 1.42857 6.25H2C2.15714 6.25 2.28571 6.10938 2.28571 5.9375V5.3125C2.28571 5.14062 2.15714 5 2 5H1.42857C1.27143 5 1.14286 5.14062 1.14286 5.3125ZM3.42857 5.3125V5.9375C3.42857 6.10938 3.55714 6.25 3.71429 6.25H4.28571C4.44286 6.25 4.57143 6.10938 4.57143 5.9375V5.3125C4.57143 5.14062 4.44286 5 4.28571 5H3.71429C3.55714 5 3.42857 5.14062 3.42857 5.3125ZM6 5C5.84286 5 5.71429 5.14062 5.71429 5.3125V5.9375C5.71429 6.10938 5.84286 6.25 6 6.25H6.57143C6.72857 6.25 6.85714 6.10938 6.85714 5.9375V5.3125C6.85714 5.14062 6.72857 5 6.57143 5H6ZM1.14286 7.8125V8.4375C1.14286 8.60938 1.27143 8.75 1.42857 8.75H2C2.15714 8.75 2.28571 8.60938 2.28571 8.4375V7.8125C2.28571 7.64062 2.15714 7.5 2 7.5H1.42857C1.27143 7.5 1.14286 7.64062 1.14286 7.8125ZM3.71429 7.5C3.55714 7.5 3.42857 7.64062 3.42857 7.8125V8.4375C3.42857 8.60938 3.55714 8.75 3.71429 8.75H4.28571C4.44286 8.75 4.57143 8.60938 4.57143 8.4375V7.8125C4.57143 7.64062 4.44286 7.5 4.28571 7.5H3.71429ZM5.71429 7.8125V8.4375C5.71429 8.60938 5.84286 8.75 6 8.75H6.57143C6.72857 8.75 6.85714 8.60938 6.85714 8.4375V7.8125C6.85714 7.64062 6.72857 7.5 6.57143 7.5H6C5.84286 7.5 5.71429 7.64062 5.71429 7.8125Z" fill="black"/>
</g>
<defs>
<clipPath id="clip0_3_55">
<rect width="8" height="10" fill="white"/>
</clipPath>
</defs>
</svg>
